<svg xmlns="http://www.w3.org/2000/svg" xmlns:svg="http://www.w3.org/2000/svg" id="svg8" width="472.25" height="472.25" version="1.1" viewBox="0 0 124.949 124.949"><defs id="defs2"><clipPath id="clipPath4571" clipPathUnits="userSpaceOnUse"><rect id="rect4573" width="112.711" height="112.711" x="48.645" y="92.145" fill="#1f0" fill-opacity="1" stroke="none" stroke-dasharray="none" stroke-linecap="square" stroke-linejoin="miter" stroke-miterlimit="4" stroke-opacity="1" stroke-width=".235" opacity="1" transform="rotate(45)"/></clipPath></defs><metadata id="metadata5"/><g id="layer2" transform="translate(-42.525053,-86.02524)"><path id="rect4531" fill="#3c4d5c" fill-opacity="1" stroke="none" stroke-dasharray="none" stroke-linecap="square" stroke-linejoin="miter" stroke-miterlimit="4" stroke-opacity="1" stroke-width=".922" d="m 160.72461,325.13477 v 117.18359 l 23.125,-23.125 v -70.93359 h 70.93359 l 23.125,-23.125 z m 355.06641,0 23.125,23.125 h 70.93359 v 70.93359 l 23.125,23.125 V 325.13477 Z m -355.06641,355.0664 v 117.1836 H 277.9082 l -23.125,-23.125 h -70.93359 v -70.9336 z m 472.25,0 -23.125,23.125 v 70.9336 h -70.93359 l -23.125,23.125 h 117.18359 z" opacity="1" transform="scale(0.26458333)"/></g><g id="layer3" transform="translate(-42.525053,-86.02524)"><path id="rect4559" fill="#234460" fill-opacity="1" stroke="none" stroke-dasharray="none" stroke-linecap="square" stroke-linejoin="miter" stroke-miterlimit="4" stroke-opacity="1" stroke-width=".37" d="m -97.188177,165.98053 53.158029,-53.15802 h 26.541741 l 53.158031,53.15803 v 26.54174 l -53.158029,53.15803 h -26.541743 l -53.158031,-53.15803 z" clip-path="url(#clipPath4571)" opacity="1" transform="rotate(-45)"/></g><g id="layer4" transform="translate(-42.525053,-86.02524)"><path id="rect4653" fill="#d9e3ec" fill-opacity="1" stroke="none" stroke-dasharray="none" stroke-linecap="square" stroke-linejoin="miter" stroke-miterlimit="4" stroke-opacity="1" stroke-width=".254" d="m 63.618029,107.31983 v 82.36035 h 82.763941 v -82.36035 z m 4.712891,4.51032 h 20.953759 v 20.95428 H 68.33092 Z m 26.192199,0 H 115.4774 v 20.95428 H 94.523119 Z m 26.192721,0 h 20.95376 v 20.95428 h -20.95376 z m -52.38492,26.19272 h 20.953759 v 20.95376 H 68.33092 Z m 26.192199,0 H 115.4774 v 20.95376 H 94.523119 Z m 26.192721,0 h 20.95376 v 20.95376 h -20.95376 z m -52.38492,26.1922 h 20.953759 v 20.95427 H 68.33092 Z m 26.192199,0 H 115.4774 v 20.95427 H 94.523119 Z m 26.192721,0 h 20.95376 v 20.95427 h -20.95376 z" clip-path="none" opacity="1"/></g></svg>